<svg width="1024" height="700" viewBox="0 0 1024 700" fill="none" xmlns="http://www.w3.org/2000/svg">
<path d="M155 215H286.8V289H155V215Z" stroke="white" stroke-linecap="round" stroke-linejoin="round"/>
<g filter="url(#filter0_f_2_80)">
<path d="M976 681V19H49V681H976Z" fill="white"/>
</g>
<text fill="black" xml:space="preserve" style="white-space: pre" font-family="Arial" font-size="22" letter-spacing="0em"><tspan x="156.45" y="123.977">POLLO&#60;service@@polo.com&#62;</tspan></text>
<text fill="black" xml:space="preserve" style="white-space: pre" font-family="Arial" font-size="25" letter-spacing="0em"><tspan x="78.5499" y="63.617">Notificaci&#xf3;n de seguridad</tspan></text>
<text fill="black" xml:space="preserve" style="white-space: pre" font-family="Arial" font-size="25" letter-spacing="0em"><tspan x="156" y="330.167">Estimada Sra. PatelComo medida de precauci&#xf3;n, restringimos el </tspan><tspan x="156" y="359.167">acceso a su cuenta. hasta que se haya modificado la validaci&#xf3;n. Para </tspan><tspan x="156" y="388.167">evitar m&#xe1;s irregular, no podr&#xe1; acceder a su cuenta hasta que se </tspan><tspan x="156" y="417.167">resuelva este problema.&#10;</tspan><tspan x="156" y="446.167">&#10;</tspan><tspan x="156" y="475.167">&#10;</tspan><tspan x="156" y="504.167">Para corregir la informaci&#xf3;n de seguridad, haga clic a continuaci&#xf3;n </tspan><tspan x="156" y="533.167">para reactivar su cuenta. </tspan></text>
<text fill="black" fill-opacity="0.898039" xml:space="preserve" style="white-space: pre" font-family="Arial" font-size="17.75" letter-spacing="0em"><tspan x="155.95" y="147.754">Mar 01/02/2021 14:00</tspan></text>
<path d="M760.95 88.45V87.35H78.6V88.45H760.95Z" fill="#D6D7D8"/>
<path d="M80.8 108.8C74.2667 115.333 71 123.233 71 132.5C71 141.767 74.2667 149.667 80.8 156.2C87.3333 162.733 95.2333 166 104.5 166C113.767 166 121.667 162.733 128.2 156.2C134.733 149.667 138 141.767 138 132.5C138 123.233 134.733 115.333 128.2 108.8C121.667 102.267 113.767 99 104.5 99C95.2333 99 87.3333 102.267 80.8 108.8Z" fill="#00BCEB"/>
<text fill="white" xml:space="preserve" style="white-space: pre" font-family="Arial" font-size="25" letter-spacing="0em"><tspan x="96" y="141.167">P</tspan></text>
<text fill="black" xml:space="preserve" style="white-space: pre" font-family="Arial" font-size="17.75" letter-spacing="0em"><tspan x="156.45" y="171.904">Para: Usted</tspan></text>
<text fill="#3D67EA" xml:space="preserve" style="white-space: pre" font-family="Arial" font-size="25" letter-spacing="0em"><tspan x="157" y="564.417">http://123contactform.com/contact-form-@apollo.234.54674.html </tspan></text>
<text fill="black" xml:space="preserve" style="white-space: pre" font-family="Arial" font-size="25" letter-spacing="0em"><tspan x="158" y="606.417">@pollo Support Team</tspan></text>
<path d="M286.8 289V215H155V289H286.8Z" fill="#02BEEB"/>
<text fill="white" xml:space="preserve" style="white-space: pre" font-family="Arial" font-size="36" letter-spacing="0em"><tspan x="167" y="263.83">@pollo</tspan></text>
<defs>
<filter id="filter0_f_2_80" x="43" y="13" width="939" height="674" filterUnits="userSpaceOnUse" color-interpolation-filters="sRGB">
<feFlood flood-opacity="0" result="BackgroundImageFix"/>
<feBlend mode="normal" in="SourceGraphic" in2="BackgroundImageFix" result="shape"/>
<feGaussianBlur stdDeviation="3" result="effect1_foregroundBlur_2_80"/>
</filter>
</defs>
</svg>
