<svg xmlns="http://www.w3.org/2000/svg" width="1024" height="700" fill="none" viewBox="0 0 1024 700"><path stroke="#fff" stroke-linecap="round" stroke-linejoin="round" d="M155 215H286.8V289H155V215Z"/><g filter="url(#filter0_f_2_80)"><path fill="#fff" d="M976 681V19H49V681H976Z"/></g><text fill="#000" xml:space="preserve" style="white-space:pre" font-family="Arial" font-size="22" letter-spacing="0em"><tspan x="156.45" y="123.977">POLLO&lt;service@@polo.com&gt;</tspan></text><text fill="#000" xml:space="preserve" style="white-space:pre" font-family="Arial" font-size="25" letter-spacing="0em"><tspan x="78.55" y="63.617">Notificación de seguridad</tspan></text><text fill="#000" xml:space="preserve" style="white-space:pre" font-family="Arial" font-size="25" letter-spacing="0em"><tspan x="156" y="330.167">Estimada Sra. PatelComo medida de precaución, restringimos el </tspan><tspan x="156" y="359.167">acceso a su cuenta. hasta que se haya modificado la validación. Para </tspan><tspan x="156" y="388.167">evitar más irregular, no podrá acceder a su cuenta hasta que se </tspan><tspan x="156" y="417.167">resuelva este problema. </tspan><tspan x="156" y="446.167"> </tspan><tspan x="156" y="475.167"> </tspan><tspan x="156" y="504.167">Para corregir la información de seguridad, haga clic a continuación </tspan><tspan x="156" y="533.167">para reactivar su cuenta.</tspan></text><text fill="#000" fill-opacity=".898" xml:space="preserve" style="white-space:pre" font-family="Arial" font-size="17.75" letter-spacing="0em"><tspan x="155.95" y="147.754">Mar 01/02/2021 14:00</tspan></text><path fill="#D6D7D8" d="M760.95 88.45V87.35H78.6V88.45H760.95Z"/><path fill="#00BCEB" d="M80.8 108.8C74.2667 115.333 71 123.233 71 132.5C71 141.767 74.2667 149.667 80.8 156.2C87.3333 162.733 95.2333 166 104.5 166C113.767 166 121.667 162.733 128.2 156.2C134.733 149.667 138 141.767 138 132.5C138 123.233 134.733 115.333 128.2 108.8C121.667 102.267 113.767 99 104.5 99C95.2333 99 87.3333 102.267 80.8 108.8Z"/><text fill="#fff" xml:space="preserve" style="white-space:pre" font-family="Arial" font-size="25" letter-spacing="0em"><tspan x="96" y="141.167">P</tspan></text><text fill="#000" xml:space="preserve" style="white-space:pre" font-family="Arial" font-size="17.75" letter-spacing="0em"><tspan x="156.45" y="171.904">Para: Usted</tspan></text><text fill="#3D67EA" xml:space="preserve" style="white-space:pre" font-family="Arial" font-size="25" letter-spacing="0em"><tspan x="157" y="564.417">http://123contactform.com/contact-form-@apollo.234.54674.html</tspan></text><text fill="#000" xml:space="preserve" style="white-space:pre" font-family="Arial" font-size="25" letter-spacing="0em"><tspan x="158" y="606.417">@pollo Support Team</tspan></text><path fill="#02BEEB" d="M286.8 289V215H155V289H286.8Z"/><text fill="#fff" xml:space="preserve" style="white-space:pre" font-family="Arial" font-size="36" letter-spacing="0em"><tspan x="167" y="263.83">@pollo</tspan></text><defs><filter id="filter0_f_2_80" width="939" height="674" x="43" y="13" color-interpolation-filters="sRGB" filterUnits="userSpaceOnUse"><feFlood flood-opacity="0" result="BackgroundImageFix"/><feBlend in="SourceGraphic" in2="BackgroundImageFix" mode="normal" result="shape"/><feGaussianBlur result="effect1_foregroundBlur_2_80" stdDeviation="3"/></filter></defs></svg>